<svg width="171" height="130" viewBox="0 0 171 130" fill="none" xmlns="http://www.w3.org/2000/svg">
<g id="IT Support_Two Color">
<path id="Vector" opacity="0.45" d="M85.5 107.261C119.841 107.261 147.68 105.452 147.68 103.221C147.68 100.991 119.841 99.1821 85.5 99.1821C51.159 99.1821 23.3201 100.991 23.3201 103.221C23.3201 105.452 51.159 107.261 85.5 107.261Z" fill="#E6E6E6"/>
<path id="Vector_2" d="M75.1246 73.9492L70.4221 98.4803H93.3617L88.6592 73.9492H75.1246Z" fill="#C9C9C9"/>
<path id="Vector_3" d="M127.908 21.9561H38.3467V80.2949H127.908V21.9561Z" fill="#E6E6E6"/>
<path id="Vector_4" d="M96.3542 96.0542H67.2842V101.005H96.3542V96.0542Z" fill="#E6E6E6"/>
<path id="Vector_5" opacity="0.56" d="M127.908 21.9561H38.3467V73.5898H127.908V21.9561Z" fill="white"/>
<path id="Vector_6" d="M45.2252 29.0933C46.2665 29.0933 47.1105 28.2485 47.1105 27.2063C47.1105 26.1642 46.2665 25.3193 45.2252 25.3193C44.184 25.3193 43.34 26.1642 43.34 27.2063C43.34 28.2485 44.184 29.0933 45.2252 29.0933Z" fill="#24285B"/>
<path id="Vector_7" d="M50.8297 29.0933C51.8709 29.0933 52.715 28.2485 52.715 27.2063C52.715 26.1642 51.8709 25.3193 50.8297 25.3193C49.7885 25.3193 48.9445 26.1642 48.9445 27.2063C48.9445 28.2485 49.7885 29.0933 50.8297 29.0933Z" fill="#5B8EDF"/>
<path id="Vector_8" d="M56.1094 29.0933C57.1506 29.0933 57.9947 28.2485 57.9947 27.2063C57.9947 26.1642 57.1506 25.3193 56.1094 25.3193C55.0682 25.3193 54.2241 26.1642 54.2241 27.2063C54.2241 28.2485 55.0682 29.0933 56.1094 29.0933Z" fill="#FFD200"/>
<path id="Vector_9" opacity="0.16" d="M123.432 73.594C123.253 74.4027 123.06 75.2114 122.863 76.0159C122.565 77.5137 122.039 78.9568 121.303 80.2948H110.325C110.315 80.2539 110.308 80.2125 110.304 80.1707C110.265 79.8284 110.842 76.401 111.278 73.5897C111.59 71.523 111.825 69.79 111.684 69.8371C109.205 70.6244 106.311 71.3647 104.165 69.8885C103.542 69.4158 102.986 68.8617 102.51 68.2411L92.3742 56.1061C91.998 55.6782 91.6261 54.955 92.0493 54.5485C92.4725 54.142 93.0112 54.4415 93.4472 54.6983L98.1497 57.4753C99.4322 58.2241 101.39 59.9828 102.886 60.0427C105.272 60.171 108.718 57.608 110.107 55.845C111.706 53.8168 112.565 51.2923 113.01 48.7463C113.437 46.3629 113.604 43.7057 115.314 41.9942C116.481 40.8303 118.375 40.0045 118.417 38.3571C118.469 36.3973 116.524 34.6515 117.806 32.6447C119.29 30.317 121.654 31.8788 122.205 33.9584C122.611 35.5202 122.564 37.1633 122.705 38.7679C122.992 42.007 124.065 45.1178 124.727 48.297C126.459 56.6409 125.322 65.2672 123.432 73.594Z" fill="#A5A5A5"/>
<path id="Vector_10" opacity="0.58" d="M53.1767 96.3966C53.1767 96.3966 49.6199 95.4253 48.8461 92.1177C48.8461 92.1177 54.3566 91.0009 54.5148 96.6961L53.1767 96.3966Z" fill="#5B8EDF"/>
<path id="Vector_11" opacity="0.73" d="M53.6128 96.0457C53.6128 96.0457 51.129 92.1133 53.3135 88.4377C53.3135 88.4377 57.503 91.0992 55.6434 96.0542L53.6128 96.0457Z" fill="#5B8EDF"/>
<path id="Vector_12" d="M54.254 96.0456C54.254 96.0456 55.5664 91.895 59.5337 91.1077C59.5337 91.1077 60.2775 93.8034 56.9687 96.0584L54.254 96.0456Z" fill="#5B8EDF"/>
<path id="Vector_13" d="M51.6719 95.9517L52.3944 100.89L56.9345 100.907L57.6056 95.9773L51.6719 95.9517Z" fill="#24285B"/>
<path id="Vector_14" d="M52.5141 39.3369H27.2531V66.1786H52.5141V39.3369Z" fill="#E6E6E6"/>
<path id="Vector_15" d="M104.618 47.2574C104.793 47.1917 104.948 47.0826 105.069 46.9404C105.19 46.7982 105.273 46.6275 105.31 46.4444V46.0165C105.255 45.7512 105.203 45.4817 105.135 45.2207C104.977 44.5124 104.687 43.8404 104.28 43.2395C104.2 43.1341 104.111 43.0354 104.015 42.9443C103.862 42.7948 103.666 42.6967 103.454 42.6637C103.243 42.6308 103.027 42.6645 102.835 42.7603C102.022 43.1621 101.093 43.2607 100.215 43.0384C99.6471 42.8655 99.1425 42.5304 98.7627 42.0743C98.383 41.6182 98.1446 41.0609 98.077 40.4711C98.0102 39.8795 98.0986 39.2807 98.3335 38.7338C98.3818 38.6053 98.4218 38.4738 98.4532 38.3402C98.4881 38.2321 98.495 38.1169 98.4734 38.0054C98.4517 37.8939 98.4021 37.7897 98.3293 37.7026C97.9348 37.1672 97.4193 36.7329 96.8248 36.4354C96.2303 36.1379 95.5739 35.9856 94.9093 35.991C94.8211 35.9853 94.7326 35.9972 94.649 36.0258C94.5653 36.0544 94.4882 36.0993 94.4219 36.1579C94.1906 36.3495 94.0076 36.5928 93.8875 36.8682C93.5737 37.6478 92.9686 38.2743 92.2007 38.6147C91.4329 38.955 90.5627 38.9824 89.775 38.691C89.3445 38.5159 88.955 38.2532 88.6312 37.9195C88.3074 37.5859 88.0564 37.1885 87.894 36.7527C87.8781 36.706 87.8595 36.6603 87.8384 36.6157C87.7612 36.3942 87.6052 36.209 87.4002 36.0953C87.1951 35.9816 86.9555 35.9476 86.7269 35.9996C85.7681 36.0958 84.8462 36.42 84.0379 36.9452C83.8822 37.0483 83.7387 37.1689 83.6104 37.3047C83.4688 37.4436 83.3686 37.6193 83.3211 37.812C83.2735 38.0047 83.2805 38.2068 83.3411 38.3958C83.5985 39.3483 83.5627 40.3564 83.2385 41.2883C83.0956 41.6825 82.8584 42.0356 82.5476 42.3168C82.2369 42.598 81.862 42.7987 81.4558 42.9015C80.7009 43.1397 79.8879 43.1171 79.1473 42.8373C79.0276 42.7945 78.9037 42.7646 78.784 42.7218C78.6097 42.6589 78.4206 42.6502 78.2413 42.6968C78.0621 42.7433 77.901 42.843 77.7793 42.9828C77.5102 43.2543 77.2916 43.5716 77.1338 43.9199C76.794 44.5684 76.5944 45.2814 76.5481 46.0123C76.539 46.2882 76.604 46.5616 76.7362 46.8039C76.8393 47.0126 77.016 47.1757 77.2321 47.2617C77.8916 47.5251 78.478 47.9434 78.9421 48.4812C79.3659 48.9614 79.6093 49.5744 79.6303 50.2148C79.6514 50.8551 79.4489 51.4828 79.0576 51.9899C78.6052 52.6127 77.9898 53.0984 77.2792 53.3934C77.0708 53.4532 76.8861 53.5764 76.7505 53.7457C76.615 53.9151 76.5353 54.1224 76.5225 54.339C76.4936 54.7361 76.5385 55.1351 76.655 55.5157C76.8259 56.1611 77.0987 56.775 77.463 57.3343C77.5698 57.5336 77.7263 57.7018 77.9174 57.8225C78.1084 57.9432 78.3274 58.0124 78.5531 58.0232C78.7387 58.026 78.9235 57.9985 79.1003 57.9419C79.8948 57.6936 80.7421 57.6684 81.5499 57.8691C81.8923 57.9565 82.2052 58.1337 82.4562 58.3826C82.8763 58.797 83.1624 59.3281 83.2775 59.9072C83.3926 60.4862 83.3314 61.0865 83.1017 61.6303C83.0248 61.8271 82.935 62.0154 82.8709 62.2165C82.8127 62.3818 82.8003 62.5597 82.8349 62.7315C82.8695 62.9032 82.9499 63.0624 83.0675 63.1921C83.3492 63.5134 83.6885 63.779 84.0679 63.9752C84.7825 64.3783 85.5649 64.6466 86.3764 64.7668C86.5594 64.7903 86.7448 64.7903 86.9278 64.7668C87.1309 64.741 87.3226 64.6588 87.4813 64.5295C87.64 64.4001 87.7593 64.2289 87.8256 64.0351C88.0818 63.3658 88.5275 62.7858 89.1081 62.3663L89.3047 62.2294C89.6313 62.0155 89.9978 61.8699 90.382 61.8015C90.8541 61.7249 91.3376 61.7626 91.792 61.9115C92.2465 62.0604 92.6587 62.3161 92.9941 62.6573C93.3822 63.0396 93.6891 63.4966 93.8961 64.0008C93.9962 64.2463 94.1582 64.4616 94.3664 64.6256C94.465 64.6995 94.5777 64.7525 94.6975 64.7812C94.8173 64.8099 94.9418 64.8137 95.0632 64.7924C96.0944 64.682 97.0767 64.2947 97.906 63.6714C98.1547 63.4981 98.334 63.2424 98.4122 62.9495C98.4905 62.6565 98.4626 62.3454 98.3335 62.0711C98.1307 61.6468 98.0236 61.1831 98.0199 60.7127C98.0162 60.2424 98.116 59.777 98.3122 59.3497C98.4906 58.9102 98.7872 58.5288 99.1691 58.2479C99.5509 57.9669 100.003 57.7973 100.475 57.7579C101.143 57.6713 101.822 57.7401 102.459 57.959C102.771 58.0686 103.109 58.0772 103.426 57.9835C103.743 57.8898 104.022 57.6986 104.225 57.437C104.723 56.8081 105.053 56.0632 105.186 55.2718C105.225 55.0456 105.246 54.8167 105.25 54.5872C105.258 54.4192 105.226 54.2517 105.158 54.098C105.09 53.9443 104.987 53.8086 104.857 53.7015C104.684 53.5444 104.486 53.4172 104.272 53.3249C103.797 53.13 103.378 52.8219 103.05 52.4275C102.722 52.0331 102.495 51.5644 102.39 51.0622C102.285 50.5601 102.304 50.0397 102.445 49.5466C102.587 49.0534 102.847 48.6025 103.203 48.233C103.593 47.8033 104.077 47.4694 104.618 47.2574ZM93.2463 58.5794C92.4684 58.8054 91.6623 58.9192 90.8523 58.9175C89.7086 58.9189 88.5767 58.6859 87.5263 58.2329C85.6717 57.4432 84.1553 56.0231 83.2449 54.2232C82.3346 52.4234 82.0888 50.3595 82.5508 48.3958C83.0129 46.4322 84.1533 44.6951 85.7705 43.4911C87.3877 42.2872 89.3779 41.6938 91.3898 41.8157C93.4016 41.9376 95.3057 42.7669 96.7661 44.1574C98.2264 45.5478 99.149 47.4099 99.3711 49.415C99.5931 51.4201 99.1003 53.4393 97.9797 55.1161C96.8591 56.7929 95.1826 58.0195 93.2463 58.5794Z" fill="#C9C9C9"/>
<path id="Vector_16" d="M75.3896 59.2812C75.5132 59.2965 75.6387 59.2797 75.754 59.2325C75.8693 59.1853 75.9705 59.1092 76.048 59.0116L76.1762 58.7634C76.2232 58.588 76.2745 58.4125 76.313 58.2371C76.4366 57.7654 76.4671 57.2742 76.4028 56.7908C76.39 56.7033 76.3685 56.6173 76.3387 56.5341C76.2945 56.3975 76.2082 56.2784 76.0923 56.1938C75.9763 56.1093 75.8366 56.0636 75.6931 56.0634C75.0844 56.0523 74.4995 55.8247 74.043 55.4216C73.7546 55.1436 73.5546 54.7867 73.4679 54.3955C73.3812 54.0042 73.4117 53.5961 73.5556 53.2222C73.6947 52.8489 73.9308 52.5194 74.2396 52.268C74.308 52.2067 74.3723 52.1409 74.432 52.0712C74.487 52.0161 74.5268 51.9478 74.5478 51.8729C74.5688 51.798 74.5701 51.7189 74.5517 51.6433C74.5141 51.4265 74.4539 51.2143 74.3722 51.01C74.0833 50.4049 73.6144 49.9042 73.0298 49.5766C72.9269 49.5153 72.8041 49.4969 72.6878 49.5252C72.4913 49.568 72.3081 49.6575 72.1534 49.7862C71.7281 50.1485 71.1795 50.3325 70.622 50.2998C70.0645 50.2671 69.5411 50.0203 69.1609 49.6108C68.961 49.3767 68.8111 49.104 68.7206 48.8096C68.6302 48.5152 68.6011 48.2053 68.6351 47.8992C68.6351 47.865 68.6351 47.835 68.6351 47.8008C68.6571 47.6453 68.6214 47.4872 68.5347 47.3563C68.4481 47.2254 68.3165 47.1308 68.1649 47.0905C67.5625 46.8572 66.914 46.7678 66.271 46.8295C66.1469 46.8432 66.0249 46.872 65.9077 46.9151C65.7807 46.9538 65.6671 47.0271 65.5795 47.1269C65.4919 47.2267 65.4338 47.3489 65.4118 47.4799C65.2787 48.1335 64.949 48.7308 64.467 49.1915C64.2628 49.3855 64.014 49.526 63.7425 49.6007C63.4711 49.6753 63.1854 49.6817 62.9109 49.6193C62.3882 49.5284 61.9111 49.2648 61.5557 48.8705L61.3719 48.6908C61.2878 48.6003 61.1783 48.5371 61.0579 48.5097C60.9374 48.4822 60.8115 48.4916 60.6964 48.5368C60.4523 48.6157 60.2247 48.739 60.0253 48.9005C59.6232 49.1815 59.2852 49.5446 59.0335 49.9659C58.9441 50.1281 58.8998 50.3114 58.9052 50.4965C58.901 50.6534 58.9559 50.8062 59.0591 50.9244C59.3645 51.2825 59.5813 51.7076 59.6918 52.1653C59.8021 52.5832 59.7619 53.0267 59.5782 53.4179C59.3945 53.8091 59.0791 54.1231 58.6872 54.3048C58.2266 54.5387 57.7099 54.6394 57.1952 54.5957C57.058 54.5789 56.9189 54.6032 56.7956 54.6657C56.6723 54.7282 56.5703 54.826 56.5027 54.9466C56.3628 55.1733 56.267 55.4245 56.2205 55.6869C56.125 56.1207 56.0976 56.5668 56.1393 57.009C56.1408 57.1594 56.1809 57.3069 56.2558 57.4372C56.3307 57.5676 56.4378 57.6766 56.5668 57.7536C56.6755 57.8143 56.7942 57.8549 56.9173 57.8734C57.4674 57.9701 57.9804 58.2157 58.4008 58.5837C58.5787 58.7389 58.7103 58.9403 58.7812 59.1656C58.9062 59.542 58.9151 59.9473 58.8068 60.3289C58.6986 60.7104 58.4781 61.0506 58.1742 61.3051C58.0673 61.3949 57.9562 61.4805 57.8536 61.5832C57.769 61.6643 57.7077 61.7666 57.6761 61.8795C57.6445 61.9924 57.6438 62.1118 57.674 62.225C57.7425 62.5033 57.8629 62.766 58.0288 62.9995C58.3338 63.4559 58.7174 63.8543 59.1617 64.1762C59.2648 64.2457 59.377 64.3004 59.4952 64.3388C59.6234 64.3864 59.7624 64.3967 59.8963 64.3687C60.0301 64.3407 60.1534 64.2755 60.2518 64.1805C60.6122 63.8613 61.058 63.6545 61.5343 63.5857C61.5865 63.5747 61.6393 63.5676 61.6925 63.5643C61.953 63.5355 62.2166 63.5618 62.4663 63.6414C62.7666 63.7379 63.0397 63.9047 63.2627 64.1279C63.4858 64.3512 63.6524 64.6244 63.7488 64.925C63.8659 65.2702 63.9096 65.636 63.877 65.9991C63.8622 66.1761 63.8915 66.354 63.9625 66.5168C63.9993 66.5913 64.0508 66.6574 64.114 66.7111C64.1773 66.7648 64.2508 66.805 64.3302 66.8292C64.9776 67.0801 65.6807 67.1511 66.3651 67.0346C66.5655 67.0073 66.7499 66.9098 66.8853 66.7594C67.0207 66.609 67.0984 66.4154 67.1047 66.213C67.1129 65.8975 67.1907 65.5877 67.3326 65.3058C67.4745 65.024 67.677 64.7771 67.9255 64.5827C68.1671 64.3762 68.4608 64.2402 68.7745 64.1897C69.0882 64.1391 69.4097 64.1759 69.7039 64.296C70.127 64.4509 70.5088 64.7013 70.8196 65.0277C70.9726 65.1883 71.1722 65.2966 71.3901 65.3373C71.608 65.378 71.8332 65.3491 72.0337 65.2545C72.5229 65.0337 72.948 64.6921 73.2692 64.2618C73.3607 64.1394 73.4436 64.0107 73.5172 63.8767C73.5727 63.7784 73.6051 63.6687 73.6117 63.556C73.6184 63.4432 73.5992 63.3305 73.5556 63.2263C73.4993 63.0792 73.4199 62.942 73.3205 62.8198C73.0978 62.5583 72.9424 62.2462 72.8679 61.9108C72.7934 61.5754 72.8021 61.2268 72.8932 60.8955C72.9842 60.5642 73.155 60.2602 73.3904 60.0101C73.6259 59.7601 73.9189 59.5715 74.2439 59.4609C74.6075 59.3158 74.9991 59.2544 75.3896 59.2812ZM65.1296 62.5417C64.5967 62.437 64.0814 62.2569 63.5992 62.0068C62.9175 61.6589 62.315 61.1738 61.8293 60.5819C61.1159 59.7096 60.672 58.6479 60.552 57.527C60.4321 56.406 60.6412 55.2744 61.1539 54.2705C61.6438 53.3229 62.3879 52.5306 63.3027 51.9826C64.2174 51.4346 65.2667 51.1525 66.3326 51.168C67.3986 51.1836 68.4391 51.4961 69.3375 52.0705C70.236 52.645 70.9567 53.4586 71.4189 54.4202C71.8811 55.3817 72.0665 56.4532 71.9542 57.5143C71.842 58.5754 71.4366 59.5843 70.7835 60.4276C70.1304 61.271 69.2554 61.9156 68.2567 62.289C67.2581 62.6624 66.1752 62.7499 65.1296 62.5417Z" fill="#C9C9C9"/>
<path id="Vector_17" d="M48.0937 60.4622H31.6692V61.6089H48.0937V60.4622Z" fill="#A5A5A5"/>
<path id="Vector_18" opacity="0.23" d="M44.9944 60.4622H34.7686V61.6089H44.9944V60.4622Z" fill="white"/>
<path id="Vector_19" opacity="0.02" d="M44.0453 48.5624C44.926 48.5624 45.6399 47.8479 45.6399 46.9664C45.6399 46.0849 44.926 45.3704 44.0453 45.3704C43.1647 45.3704 42.4507 46.0849 42.4507 46.9664C42.4507 47.8479 43.1647 48.5624 44.0453 48.5624Z" fill="#A5A5A5"/>
<path id="Vector_20" opacity="0.36" d="M35.9784 56.6367C36.8591 56.6367 37.573 55.9221 37.573 55.0406C37.573 54.1591 36.8591 53.4446 35.9784 53.4446C35.0978 53.4446 34.3839 54.1591 34.3839 55.0406C34.3839 55.9221 35.0978 56.6367 35.9784 56.6367Z" fill="#A5A5A5"/>
<path id="Vector_21" opacity="0.16" d="M44.0453 56.6367C44.926 56.6367 45.6399 55.9221 45.6399 55.0406C45.6399 54.1591 44.926 53.4446 44.0453 53.4446C43.1647 53.4446 42.4507 54.1591 42.4507 55.0406C42.4507 55.9221 43.1647 56.6367 44.0453 56.6367Z" fill="#A5A5A5"/>
<path id="Vector_22" opacity="0.84" d="M35.9784 48.5624C36.8591 48.5624 37.573 47.8479 37.573 46.9664C37.573 46.0849 36.8591 45.3704 35.9784 45.3704C35.0978 45.3704 34.3839 46.0849 34.3839 46.9664C34.3839 47.8479 35.0978 48.5624 35.9784 48.5624Z" fill="#A5A5A5"/>
<path id="Vector_23" opacity="0.23" d="M39.9584 58.5153C40.8391 58.5153 41.553 57.8007 41.553 56.9193C41.553 56.0378 40.8391 55.3232 39.9584 55.3232C39.0777 55.3232 38.3638 56.0378 38.3638 56.9193C38.3638 57.8007 39.0777 58.5153 39.9584 58.5153Z" fill="#A5A5A5"/>
<path id="Vector_24" d="M39.9584 47.0991C40.8391 47.0991 41.553 46.3845 41.553 45.503C41.553 44.6215 40.8391 43.907 39.9584 43.907C39.0777 43.907 38.3638 44.6215 38.3638 45.503C38.3638 46.3845 39.0777 47.0991 39.9584 47.0991Z" fill="#A5A5A5"/>
<path id="Vector_25" opacity="0.52" d="M34.1786 52.7302C35.0593 52.7302 35.7732 52.0156 35.7732 51.1341C35.7732 50.2527 35.0593 49.5381 34.1786 49.5381C33.298 49.5381 32.584 50.2527 32.584 51.1341C32.584 52.0156 33.298 52.7302 34.1786 52.7302Z" fill="#A5A5A5"/>
<path id="Vector_26" opacity="0.09" d="M45.5886 52.7302C46.4692 52.7302 47.1832 52.0156 47.1832 51.1341C47.1832 50.2527 46.4692 49.5381 45.5886 49.5381C44.7079 49.5381 43.994 50.2527 43.994 51.1341C43.994 52.0156 44.7079 52.7302 45.5886 52.7302Z" fill="#A5A5A5"/>
<path id="Vector_27" opacity="0.23" d="M29.3051 41.7377C29.5932 41.7377 29.8267 41.5039 29.8267 41.2156C29.8267 40.9273 29.5932 40.6936 29.3051 40.6936C29.0171 40.6936 28.7836 40.9273 28.7836 41.2156C28.7836 41.5039 29.0171 41.7377 29.3051 41.7377Z" fill="#A5A5A5"/>
<path id="Vector_28" opacity="0.23" d="M31.6692 41.7377C31.9572 41.7377 32.1907 41.5039 32.1907 41.2156C32.1907 40.9273 31.9572 40.6936 31.6692 40.6936C31.3812 40.6936 31.1476 40.9273 31.1476 41.2156C31.1476 41.5039 31.3812 41.7377 31.6692 41.7377Z" fill="#A5A5A5"/>
<path id="Vector_29" opacity="0.23" d="M34.0375 41.7377C34.3256 41.7377 34.5591 41.5039 34.5591 41.2156C34.5591 40.9273 34.3256 40.6936 34.0375 40.6936C33.7495 40.6936 33.516 40.9273 33.516 41.2156C33.516 41.5039 33.7495 41.7377 34.0375 41.7377Z" fill="#A5A5A5"/>
<path id="Vector_30" d="M94.905 54.9423C94.4072 54.5306 93.9634 54.0576 93.584 53.5345C93.3019 53.0125 92.9385 51.2453 92.4982 51.2881C92.0578 51.3309 92.5794 52.3322 92.4982 53.2949C92.4169 54.2577 91.9766 52.9355 91.7757 53.4147C91.5748 53.894 92.1391 54.4588 92.4982 54.9423C93.1716 55.6263 93.8854 56.2693 94.6357 56.8678L94.905 54.9423Z" fill="#F4A28C"/>
<path id="Vector_31" d="M113.108 45.0195C113.108 45.0195 107.298 59.5679 105.054 58.7634C102.81 57.959 94.6314 54.2663 94.6314 54.2663L93.7764 56.3715C93.7764 56.3715 102.066 67.7534 107.029 65.8236C111.992 63.8938 118.636 53.8427 118.636 53.8427L113.108 45.0195Z" fill="#5B8EDF"/>
<path id="Vector_32" opacity="0.46" d="M113.108 45.0195C113.108 45.0195 107.298 59.5679 105.054 58.7634C102.81 57.959 94.6314 54.2663 94.6314 54.2663L93.7764 56.3715C93.7764 56.3715 102.066 67.7534 107.029 65.8236C111.992 63.8938 118.636 53.8427 118.636 53.8427L113.108 45.0195Z" fill="white"/>
<path id="Vector_33" d="M115.459 101.993C115.459 101.993 114.959 103.32 113.749 103.401C112.539 103.482 112.21 104.659 113.288 104.98C114.365 105.301 117.174 103.957 117.174 103.957L117.135 101.75L115.459 101.993Z" fill="#5B8EDF"/>
<path id="Vector_34" d="M131.114 101.75C131.114 101.75 130.798 103.32 129.592 103.401C128.387 103.482 128.058 104.659 129.135 104.98C130.212 105.301 133.021 103.957 133.021 103.957L132.952 101.75H131.114Z" fill="#5B8EDF"/>
<path id="Vector_35" d="M120.632 40.9246L124.415 41.0444C124.415 41.0444 136.09 41.8616 137.86 48.725C139.63 55.5884 131.52 71.8312 131.52 71.8312H116.207C116.207 71.8312 102.959 42.0884 120.632 40.9246Z" fill="#5B8EDF"/>
<path id="Vector_36" d="M120.632 40.9246C120.632 40.9246 120.354 55.7467 120.401 55.5328C120.448 55.3188 124.402 41.0444 124.402 41.0444L120.632 40.9246Z" fill="#24285B"/>
<path id="Vector_37" d="M120.508 32.7646C120.272 33.9037 120.191 35.0697 120.269 36.2305C120.286 36.3681 120.33 36.5009 120.4 36.6211C120.469 36.7413 120.561 36.8465 120.671 36.9306C120.782 37.0146 120.908 37.0758 121.042 37.1107C121.176 37.1455 121.316 37.1532 121.453 37.1333C121.898 37.1002 122.323 36.9392 122.679 36.6697C123.035 36.4003 123.305 36.0338 123.458 35.6143L124.313 33.8728C124.443 33.5062 124.457 33.1082 124.352 32.7335C124.247 32.3588 124.029 32.0258 123.727 31.7804C122.637 30.8048 120.705 31.5023 120.508 32.7646Z" fill="#F4A28C"/>
<path id="Vector_38" d="M124.142 34.1895L124.415 41.0443L120.632 40.9245L121.953 35.9823L124.142 34.1895Z" fill="#F4A28C"/>
<path id="Vector_39" d="M121.012 32.9101C121.651 33.0139 122.3 33.0412 122.945 32.9914C122.726 33.2514 122.588 33.5698 122.547 33.9074C122.507 34.245 122.567 34.587 122.718 34.8912C122.86 35.1894 123.1 35.429 123.399 35.5688C123.698 35.7085 124.036 35.7398 124.355 35.6572L124.638 32.9828C124.69 32.601 124.638 32.2121 124.487 31.8574C124.337 31.5026 124.093 31.1952 123.783 30.9675C123.511 30.7679 123.225 30.5878 122.928 30.4283C122.197 30.0261 121.012 30.4069 120.363 29.8079C120.3 29.7478 120.222 29.7051 120.137 29.684C120.053 29.6629 119.964 29.664 119.88 29.6873C119.797 29.7105 119.72 29.7551 119.658 29.8168C119.597 29.8784 119.552 29.9549 119.529 30.0389C119.311 30.8391 119.307 32.1356 120.35 32.709C120.557 32.815 120.781 32.8831 121.012 32.9101Z" fill="#24285B"/>
<path id="Vector_40" d="M131.52 71.8228C131.52 71.8228 129.464 86.799 133.658 101.75H130.55C130.55 101.75 124.992 92.935 123.577 74.741L131.52 71.8228Z" fill="#24285B"/>
<path id="Vector_41" d="M122.504 34.8056C122.504 34.8056 122.611 34.0055 123.206 34.1381C123.8 34.2708 123.633 35.4218 122.816 35.4218L122.504 34.8056Z" fill="#F4A28C"/>
<path id="Vector_42" d="M120.307 34.0698L119.632 34.8015C119.593 34.8428 119.565 34.8934 119.551 34.9484C119.537 35.0034 119.538 35.061 119.552 35.1158C119.567 35.1706 119.595 35.2208 119.634 35.2616C119.674 35.3025 119.723 35.3326 119.777 35.3492L120.555 35.5931L120.307 34.0698Z" fill="#F4A28C"/>
<path id="Vector_43" opacity="0.31" d="M121.615 37.0521C122.09 36.9851 122.535 36.7831 122.898 36.4702C122.898 36.4702 122.697 37.7111 121.188 38.7766L121.615 37.0521Z" fill="#CE8172"/>
<path id="Vector_44" d="M116.207 71.8228C116.207 71.8228 112.467 93.1703 114.818 101.75H117.832C117.832 101.75 118.871 81.9552 123.954 77.334L131.52 71.8228H116.207Z" fill="#24285B"/>
<path id="Vector_45" opacity="0.08" d="M131.05 45.7085C131.05 45.7085 124.834 48.0747 128.224 57.6296C131.614 67.1844 130.362 68.3269 126.779 67.6893C124.877 67.3556 123.535 64.6941 122.705 63.1879C122.043 61.9898 121.53 60.7232 120.893 59.5123C120.337 58.4554 118.871 58.4939 117.828 58.5538C116.012 58.6537 114.202 58.7963 112.398 58.9817C112.544 59.484 112.882 59.9084 113.339 60.1627C114.243 60.8045 115.213 61.3482 116.233 61.7844C116.992 62.1102 117.822 62.2368 118.644 62.1524C118.644 62.1524 118.148 69.4266 122.064 71.8185H131.529L136.458 66.6838V53.7999L131.05 45.7085Z" fill="black"/>
<path id="Vector_46" d="M131.691 45.1093C132.309 44.6333 133.08 44.4016 133.858 44.4584C134.635 44.5152 135.364 44.8566 135.906 45.4174C138.01 47.5569 140.938 52.4092 139.686 62.0624C137.8 76.5808 127.788 76.3711 119.542 61.5917L122.056 59.9871C122.056 59.9871 129.605 70.4534 132.901 65.2673C135.894 60.5605 125.873 49.6664 131.691 45.1093Z" fill="#5B8EDF"/>
<path id="Vector_47" opacity="0.46" d="M131.691 45.1093C132.309 44.6333 133.08 44.4016 133.858 44.4584C134.635 44.5152 135.364 44.8566 135.906 45.4174C138.01 47.5569 140.938 52.4092 139.686 62.0624C137.8 76.5808 127.788 76.3711 119.542 61.5917L122.056 59.9871C122.056 59.9871 129.605 70.4534 132.901 65.2673C135.894 60.5605 125.873 49.6664 131.691 45.1093Z" fill="white"/>
<path id="Vector_48" d="M121.671 60.2354C121.562 59.9157 121.418 59.6087 121.243 59.3197C121.09 59.1599 120.906 59.0324 120.703 58.945C120.499 58.8575 120.28 58.8118 120.059 58.8105L119.012 58.7078C118.573 58.6298 118.123 58.6607 117.699 58.7977C117.581 58.8327 117.477 58.9032 117.4 58.9997C117.324 59.0961 117.279 59.2139 117.272 59.3368C117.291 59.4322 117.335 59.5205 117.401 59.5922C117.466 59.6639 117.55 59.7162 117.644 59.7433C117.831 59.7941 118.023 59.8256 118.217 59.8375C118.621 59.8956 119.003 60.0579 119.326 60.3084C119.649 60.559 119.902 60.8891 120.059 61.2666L121.671 60.2354Z" fill="#F4A28C"/>
<path id="Vector_49" d="M103.104 59.5336L101.241 49.0032H114.437L115.583 57.9803L121.637 58.0659V59.5336H103.104Z" fill="#FFD200"/>
<path id="Vector_50" d="M108.358 55.3746C109.088 55.3746 109.679 54.7826 109.679 54.0524C109.679 53.3222 109.088 52.7302 108.358 52.7302C107.629 52.7302 107.037 53.3222 107.037 54.0524C107.037 54.7826 107.629 55.3746 108.358 55.3746Z" fill="white"/>
<path id="Vector_51" d="M123.321 35.4389C123.748 35.4389 124.095 35.0921 124.095 34.6644C124.095 34.2366 123.748 33.8899 123.321 33.8899C122.894 33.8899 122.547 34.2366 122.547 34.6644C122.547 35.0921 122.894 35.4389 123.321 35.4389Z" fill="#C9C9C9"/>
<path id="Vector_52" d="M123.197 34.8313C123.197 34.8313 122.881 37.0906 122.06 37.45C121.527 37.6594 120.934 37.6594 120.401 37.45" stroke="#C9C9C9" stroke-width="1.015" stroke-miterlimit="10"/>
<path id="Vector_53" d="M120.38 37.8052C120.562 37.8052 120.709 37.6577 120.709 37.4757C120.709 37.2937 120.562 37.1462 120.38 37.1462C120.198 37.1462 120.051 37.2937 120.051 37.4757C120.051 37.6577 120.198 37.8052 120.38 37.8052Z" fill="#C9C9C9"/>
<path id="Vector_54" d="M124.655 32.6833L119.525 28.567C119.525 28.567 119.619 28.3873 120.033 28.6568C120.448 28.9264 122.038 30.0732 122.038 30.0732C122.038 30.0732 122.688 28.9906 124.078 29.9833C125.467 30.976 125.215 32.0115 124.655 32.6833Z" fill="#5B8EDF"/>
<path id="Vector_55" d="M123.034 34.656C123.034 34.656 123.889 31.7249 123.787 30.959C123.696 30.4573 123.495 29.9822 123.197 29.5684C123.441 29.5533 123.683 29.6081 123.897 29.7263C124.11 29.8446 124.286 30.0213 124.402 30.2359C124.402 30.2359 125.257 31.2072 123.71 34.7801L123.034 34.656Z" fill="#C9C9C9"/>
<path id="Vector_56" d="M128.147 49.7776H124.095V52.73H128.147V49.7776Z" fill="white"/>
<path id="Vector_57" opacity="0.08" d="M126.544 49.3755H125.941V50.381H126.544V49.3755Z" fill="black"/>
</g>
</svg>
