<svg width="170" height="129" viewBox="0 0 170 129" fill="none" xmlns="http://www.w3.org/2000/svg">
<g id="Online payment _Two Color">
<path id="Vector" d="M49.8483 25.1057L49.4233 22.5582C49.3492 22.1137 49.3729 21.6584 49.4928 21.2239C49.6127 20.7895 49.8259 20.3863 50.1175 20.0425C50.4091 19.6986 50.7721 19.4223 51.1814 19.2328C51.5907 19.0433 52.0364 18.9451 52.4875 18.9451H122.846C123.285 18.9439 123.718 19.0384 124.116 19.2219C124.514 19.4054 124.867 19.6736 125.15 20.0076C125.433 20.3416 125.64 20.7335 125.756 21.1557C125.872 21.5779 125.894 22.0204 125.821 22.4521L125.235 25.9336L49.8483 25.1057Z" fill="#5B8EDF"/>
<path id="Vector_2" d="M77.6263 71.6814C77.6263 71.6814 73.7205 75.0143 76.8188 78.7463C79.917 82.4783 81.0008 87.8535 85.8373 84.7626C90.6738 81.6717 87.737 75.3667 87.737 75.3667L77.6263 71.6814Z" fill="#F4A28C"/>
<path id="Vector_3" opacity="0.09" d="M77.6263 71.6814C77.6263 71.6814 73.7205 75.0143 76.8188 78.7463C79.917 82.4783 81.0008 87.8535 85.8373 84.7626C90.6738 81.6717 87.737 75.3667 87.737 75.3667L77.6263 71.6814Z" fill="black"/>
<path id="Vector_4" d="M55.913 57.5559L49.8483 25.1056C49.7827 24.755 49.7953 24.3944 49.885 24.0493C49.9747 23.7041 50.1395 23.3829 50.3675 23.1086C50.5955 22.8342 50.8811 22.6133 51.2042 22.4617C51.5273 22.3101 51.8798 22.2314 52.2368 22.2312H122.102C122.562 22.2312 123.016 22.3311 123.433 22.5241C123.851 22.7171 124.221 22.9986 124.518 23.3489C124.815 23.6992 125.032 24.1099 125.155 24.5526C125.277 24.9953 125.302 25.4592 125.226 25.9123L119.85 58.1375L55.913 57.5559Z" fill="#24285B"/>
<path id="Vector_5" d="M55.301 26.9951L59.5807 53.098H115.324L119.238 26.9951H55.301Z" fill="white"/>
<path id="Vector_6" d="M55.913 57.5559L53.8943 91.3818C53.8554 92.0363 53.951 92.6919 54.175 93.3082C54.399 93.9245 54.7468 94.4885 55.1969 94.9656C55.6471 95.4428 56.1901 95.823 56.7927 96.0828C57.3953 96.3427 58.0447 96.4767 58.701 96.4767H116.612C117.384 96.477 118.149 96.3181 118.857 96.0099C119.566 95.7016 120.203 95.2507 120.729 94.6852C121.255 94.1198 121.659 93.452 121.915 92.7236C122.171 91.9952 122.274 91.2219 122.217 90.452L119.85 58.1376L55.913 57.5559Z" fill="#E6E6E6"/>
<path id="Vector_7" opacity="0.5" d="M61.2892 62.1794L59.3342 81.7099H116.671L114.593 62.1794H61.2892Z" fill="white"/>
<path id="Vector_8" opacity="0.09" d="M75.3143 44.1987H70.3078L60.214 78.6827L76.5978 81.7099C76.5978 81.7099 74.3198 91.662 79.3135 96.4852H89.1863L91.6768 79.7357L75.3143 44.1987Z" fill="black"/>
<path id="Vector_9" d="M93.5544 81.4161L104.438 40.7258L78.1228 33.7015L67.2394 74.3918L93.5544 81.4161Z" fill="#FFD200"/>
<path id="Vector_10" d="M89.8316 76.8481L94.739 58.5583L90.3732 57.3893L85.4659 75.6791L89.8316 76.8481Z" fill="white"/>
<path id="Vector_11" opacity="0.46" d="M83.625 48.3401L85.4008 41.7219C85.6339 40.853 85.1178 39.9599 84.2481 39.727L83.0319 39.4013C82.1622 39.1685 81.2682 39.684 81.035 40.5529L79.2593 47.1711C79.0262 48.04 79.5423 48.9331 80.412 49.166L81.6281 49.4917C82.4979 49.7246 83.3919 49.209 83.625 48.3401Z" fill="white"/>
<path id="Vector_12" opacity="0.46" d="M77.5815 71.8806L82.4593 53.6438C82.6907 52.7784 82.1761 51.8895 81.3099 51.6582L80.0986 51.3349C79.2324 51.1037 78.3425 51.6177 78.1111 52.4831L73.2333 70.72C73.0018 71.5853 73.5164 72.4743 74.3827 72.7055L75.5939 73.0289C76.4602 73.2601 77.35 72.746 77.5815 71.8806Z" fill="white"/>
<path id="Vector_13" opacity="0.3" d="M95.8418 49.1322C97.4871 49.1322 98.821 47.7997 98.821 46.156C98.821 44.5122 97.4871 43.1797 95.8418 43.1797C94.1964 43.1797 92.8625 44.5122 92.8625 46.156C92.8625 47.7997 94.1964 49.1322 95.8418 49.1322Z" fill="white"/>
<path id="Vector_14" opacity="0.09" d="M81.532 70.344C81.532 70.344 77.4945 71.0785 78.557 77.4132L83.3042 78.6869L81.532 70.344Z" fill="black"/>
<path id="Vector_15" opacity="0.3" d="M94.9875 53.098C96.6329 53.098 97.9667 51.7655 97.9667 50.1218C97.9667 48.478 96.6329 47.1455 94.9875 47.1455C93.3421 47.1455 92.0083 48.478 92.0083 50.1218C92.0083 51.7655 93.3421 53.098 94.9875 53.098Z" fill="white"/>
<path id="Vector_16" d="M85 102.637L85.2465 96.532C85.2465 96.532 81.226 93.4029 82.4203 84.8307C83.6145 76.2586 79.985 76.2076 81.3153 70.9811C82.6455 65.7546 88.23 69.805 89.59 75.9656C90.95 82.1262 96.0628 72.9936 96.0628 72.9936C96.0628 72.9936 101.885 75.3882 99.9643 87.1786C98.0433 98.9691 98.7105 102.629 98.7105 102.629L85 102.637Z" fill="#F4A28C"/>
<path id="Vector_17" d="M110.02 31.8225H64.77V44.1989H110.02V31.8225Z" fill="white"/>
<path id="Vector_18" d="M109.259 44.1987H65.5308L64.77 42.4495H110.02L109.259 44.1987Z" fill="#E6E6E6"/>
<path id="Vector_19" d="M82.1228 99.1388L100.368 97.95L102.319 116.16H81.0348L82.1228 99.1388Z" fill="#5B8EDF"/>
<path id="Vector_20" opacity="0.09" d="M75.3143 44.1987L74.222 48.2747L102.718 47.1453L103.505 44.1987H75.3143Z" fill="black"/>
<path id="Vector_21" d="M74.715 32.9092L75.9135 37.2441H97.5885L99.1398 32.9092H74.715Z" fill="#5B8EDF"/>
</g>
</svg>
