<svg width="170" height="131" viewBox="0 0 170 131" fill="none" xmlns="http://www.w3.org/2000/svg">
<g id="Problem Solving_Two Color">
<path id="Vector" d="M112.531 51.8642C112.531 51.8642 110.899 59.4478 102.259 60.3053C93.619 61.1629 81.5405 40.5906 81.5405 40.5906C81.5405 40.5906 91.9657 41.669 95.7652 46.8662C99.5647 52.0634 103.275 54.4888 109.225 50.448L112.531 51.8642Z" fill="#5B8EDF"/>
<path id="Vector_2" opacity="0.2" d="M112.531 51.8642C112.531 51.8642 110.899 59.4478 102.259 60.3053C93.619 61.1629 81.5405 40.5906 81.5405 40.5906C81.5405 40.5906 91.9657 41.669 95.7652 46.8662C99.5647 52.0634 103.275 54.4888 109.225 50.448L112.531 51.8642Z" fill="white"/>
<path id="Vector_3" opacity="0.45" d="M87.4055 118.852C111.054 118.852 130.224 116.147 130.224 112.81C130.224 109.473 111.054 106.768 87.4055 106.768C63.7574 106.768 44.5868 109.473 44.5868 112.81C44.5868 116.147 63.7574 118.852 87.4055 118.852Z" fill="#E6E6E6"/>
<path id="Vector_4" d="M81.0007 108.579C81.0007 108.579 80.495 110.311 81.6255 111.32C82.756 112.329 82.2035 113.78 80.8903 113.273C79.577 112.767 77.8005 109.233 77.8005 109.233L79.1733 107.5L81.0007 108.579Z" fill="#5B8EDF"/>
<path id="Vector_5" d="M96.1903 107.544C96.1903 107.544 95.9055 109.324 97.155 110.181C98.4045 111.039 98.039 112.542 96.6705 112.212C95.302 111.883 93.1005 108.609 93.1005 108.609L94.2395 106.725L96.1903 107.544Z" fill="#5B8EDF"/>
<path id="Vector_6" d="M71.6082 27.264C71.6082 27.264 71.4425 30.5988 70.5967 32.7167C70.5148 32.9235 70.3933 33.1116 70.2392 33.27C70.0852 33.4284 69.9018 33.554 69.6997 33.6395C69.4975 33.725 69.2807 33.7686 69.0619 33.7678C68.843 33.767 68.6265 33.7218 68.425 33.6349C67.388 33.2018 66.1087 32.2706 65.9855 30.4732L65.4075 27.4415C65.359 26.822 65.5006 26.2025 65.8128 25.6687C66.1249 25.1348 66.5922 24.7131 67.15 24.4618C69.156 23.3704 71.825 25.237 71.6082 27.264Z" fill="#F4A28C"/>
<path id="Vector_7" d="M65.5902 30.0271L67.0862 39.1179L73.1382 39.4037L69.6192 32.3009L65.5902 30.0271Z" fill="#F4A28C"/>
<path id="Vector_8" d="M70.7795 27.2857C69.7661 27.1872 68.7676 26.9677 67.8045 26.6317C68.0327 27.124 68.114 27.6736 68.0385 28.2126C67.9629 28.7515 67.7338 29.256 67.3795 29.6634C67.0451 30.0825 66.5721 30.3628 66.0493 30.4517C65.8707 30.4715 65.6901 30.4489 65.5215 30.3858C65.3529 30.3226 65.2009 30.2206 65.0774 30.0876C64.954 29.9547 64.8624 29.7944 64.8098 29.6194C64.7572 29.4444 64.745 29.2593 64.7743 29.0787L65.2375 25.9388C65.3084 25.3252 65.5415 24.7427 65.9121 24.2537C66.2826 23.7647 66.7766 23.3876 67.3413 23.1626C67.8256 22.963 68.3226 22.7966 68.8288 22.6645C70.1038 22.344 71.7443 23.4094 72.9343 22.7338C73.0539 22.6673 73.1884 22.6335 73.3247 22.6357C73.4609 22.6378 73.5943 22.6758 73.712 22.7459C73.8296 22.8161 73.9274 22.9161 73.9959 23.0361C74.0644 23.1562 74.1013 23.2922 74.103 23.4311C74.103 24.7304 73.6143 26.7573 71.7995 27.2207C71.4655 27.3009 71.1207 27.3229 70.7795 27.2857V27.2857Z" fill="#24285B"/>
<path id="Vector_9" d="M67.7705 29.6069C67.7705 29.6069 67.9193 28.3336 66.9673 28.3076C66.0153 28.2817 65.79 30.1137 67.0438 30.4732L67.7705 29.6069Z" fill="#F4A28C"/>
<path id="Vector_10" d="M71.4 29.3601L72.131 30.7634C72.1724 30.8418 72.1939 30.9296 72.1934 31.0187C72.1929 31.1078 72.1705 31.1954 72.1282 31.2734C72.0859 31.3514 72.0251 31.4173 71.9514 31.4652C71.8776 31.513 71.7932 31.5412 71.706 31.5473L70.431 31.6122L71.4 29.3601Z" fill="#F4A28C"/>
<path id="Vector_11" opacity="0.31" d="M70.125 33.3664C69.401 33.4181 68.6768 33.2684 68.0298 32.9333C68.0298 32.9333 68.204 35.3241 71.1365 35.4193L70.125 33.3664Z" fill="#CE8172"/>
<path id="Vector_12" d="M93.925 78.6731L98.3577 85.7067C99.5236 87.5555 100.258 89.6519 100.506 91.8351C100.754 94.0182 100.507 96.2302 99.7857 98.3012L96.577 107.513L93.2492 106.777L94.1842 97.6126C94.3251 96.2208 94.1273 94.815 93.6084 93.5195C93.0896 92.2241 92.2656 91.0788 91.2092 90.1849L84.4688 84.4463L89.5687 78.6731H93.925Z" fill="#24285B"/>
<path id="Vector_13" d="M56.0065 47.3208C56.105 44.8704 57.1461 42.5579 58.9045 40.8835C60.6629 39.209 62.9975 38.3072 65.4032 38.373C71.5232 38.5246 80.546 39.3345 86.2027 42.5351C95.4082 47.7323 93.8527 77.5036 93.8527 77.5036L74.103 82.2374C74.103 82.2374 55.4455 63.4409 56.0065 47.3208Z" fill="#5B8EDF"/>
<path id="Vector_14" opacity="0.08" d="M64.7742 43.7825C64.7742 43.7825 73.1383 47.5071 76.6743 62.4058C80.1678 77.1659 93.279 68.3826 93.279 68.3826L93.075 77.7852L74.103 82.2375L69.989 77.625C69.989 77.625 57.5577 63.6748 64.7742 43.7825Z" fill="black"/>
<path id="Vector_15" d="M74.103 82.2375L78.7227 89.427C79.6082 90.8049 80.1981 92.3578 80.4537 93.9841C80.7093 95.6105 80.6249 97.2735 80.206 98.8642L77.8217 107.881L81.5405 108.748L86.5597 99.4403C87.5908 97.533 88.1877 95.4139 88.3061 93.2397C88.4246 91.0656 88.0616 88.8921 87.244 86.8803L86.1772 84.2514L92.1272 77.9065L74.103 82.2375Z" fill="#24285B"/>
<path id="Vector_16" d="M106.909 67.8975L113.947 62.0507L106.773 53.0812C108.032 53.341 109.34 53.1977 110.517 52.6709C111.694 52.1442 112.682 51.2597 113.346 50.1386C114.011 49.0175 114.319 47.7145 114.229 46.408C114.139 45.1014 113.654 43.8553 112.842 42.84C112.031 41.8247 110.931 41.0899 109.693 40.7363C108.456 40.3826 107.141 40.4273 105.929 40.8643C104.718 41.3012 103.668 42.1091 102.925 43.1773C102.181 44.2455 101.779 45.5218 101.775 46.8315L94.5965 37.8577L70.8602 57.5811L90.2105 81.7698L97.2485 75.9229C96.7314 75.2765 96.3443 74.5327 96.1093 73.7338C95.8743 72.935 95.796 72.0968 95.8789 71.2671C96.0463 69.5915 96.86 68.0523 98.141 66.988C99.422 65.9238 101.065 65.4218 102.71 65.5923C104.354 65.7629 105.864 66.5921 106.909 67.8975V67.8975Z" fill="#FFD200"/>
<path id="Vector_17" d="M44.3827 67.3995L39.95 60.4699L31.45 66.1392C31.7929 65.0216 31.7888 63.8233 31.4383 62.7081C31.0879 61.5929 30.4081 60.6152 29.4919 59.9084C28.5757 59.2017 27.4678 58.8004 26.3194 58.7594C25.171 58.7183 24.0382 59.0396 23.0757 59.6792C22.1132 60.3189 21.368 61.2457 20.9418 62.3332C20.5155 63.4207 20.4291 64.6157 20.6944 65.755C20.9596 66.8944 21.5635 67.9226 22.4236 68.699C23.2837 69.4755 24.3581 69.9625 25.5 70.0934L17 75.7671L32.0152 99.1545L54.9652 83.853L50.5155 76.9234C49.9016 77.3324 49.2146 77.6141 48.4938 77.7525C47.7731 77.8908 47.0326 77.8832 46.3148 77.73C45.5969 77.5768 44.9157 77.2809 44.31 76.8594C43.7043 76.4379 43.186 75.899 42.7847 75.2733C42.3835 74.6477 42.107 73.9476 41.9712 73.2131C41.8354 72.4786 41.8429 71.7241 41.9933 70.9925C42.1436 70.261 42.4339 69.5668 42.8476 68.9495C43.2612 68.3323 43.7901 67.8042 44.404 67.3952L44.3827 67.3995Z" fill="#E6E6E6"/>
<path id="Vector_18" d="M147.828 63.5752C148.966 63.3502 150.009 62.7722 150.813 61.9203C151.617 61.0683 152.143 59.984 152.319 58.8158C152.495 57.6475 152.312 56.4524 151.796 55.3939C151.28 54.3355 150.455 53.4654 149.435 52.9028C148.415 52.3401 147.25 52.1125 146.098 52.2509C144.946 52.3893 143.864 52.8871 143.001 53.676C142.137 54.465 141.534 55.5067 141.274 56.6585C141.013 57.8102 141.108 59.0159 141.546 60.1103L132.532 55.121L128.609 62.4837C129.294 62.8168 129.906 63.2886 130.406 63.8701C130.906 64.4517 131.285 65.131 131.52 65.8667C131.754 66.6023 131.84 67.3789 131.77 68.1492C131.701 68.9194 131.478 69.6672 131.116 70.347C130.754 71.0268 130.26 71.6243 129.664 72.1033C129.068 72.5822 128.382 72.9325 127.649 73.1329C126.916 73.3332 126.151 73.3794 125.399 73.2686C124.648 73.1578 123.927 72.8923 123.28 72.4884L119.332 79.8987L143.65 93.3249L147.564 85.9621C146.893 85.6148 146.298 85.1339 145.812 84.548C145.327 83.9621 144.962 83.2831 144.738 82.5509C144.515 81.8187 144.437 81.0484 144.511 80.2853C144.585 79.5222 144.807 78.7818 145.166 78.108C145.526 77.4341 146.013 76.8404 146.601 76.362C147.189 75.8835 147.865 75.5299 148.59 75.3222C149.314 75.1145 150.072 75.0568 150.818 75.1525C151.565 75.2482 152.285 75.4954 152.936 75.8796L156.85 68.5168L147.828 63.5752Z" fill="#C9C9C9"/>
<path id="Vector_19" opacity="0.08" d="M79.475 68.374L96.6408 68.7768C96.6408 68.7768 94.486 72.0684 97.2315 75.923L90.1935 81.7698L79.475 68.374Z" fill="black"/>
<path id="Vector_20" d="M55.5815 46.1168C54.6805 50.5431 53.9197 59.1575 59.3257 71.9383C60.0415 73.6141 61.2201 75.0416 62.7181 76.0467C64.216 77.0517 65.9685 77.5911 67.762 77.5989L93.0708 77.7765L93.262 73.8223L69.9253 69.8637C69.9253 69.8637 70.8603 49.7072 64.3195 43.2886C61.387 40.4172 56.406 42.0586 55.5815 46.1168Z" fill="#5B8EDF"/>
<path id="Vector_21" opacity="0.2" d="M55.5815 46.1168C54.6805 50.5431 53.9197 59.1575 59.3257 71.9383C60.0415 73.6141 61.2201 75.0416 62.7181 76.0467C64.216 77.0517 65.9685 77.5911 67.762 77.5989L93.0708 77.7765L93.262 73.8223L69.9253 69.8637C69.9253 69.8637 70.8603 49.7072 64.3195 43.2886C61.387 40.4172 56.406 42.0586 55.5815 46.1168Z" fill="white"/>
<path id="Vector_22" d="M93.1005 77.192C93.1005 77.192 96.1647 78.7728 97.7245 77.257C99.2842 75.7411 97.7967 74.6584 97.7245 73.0689C97.7408 72.842 97.6818 72.6161 97.557 72.4276C97.4321 72.2391 97.2486 72.0988 97.036 72.0294C96.7585 71.9442 96.4609 71.9578 96.192 72.068C95.9232 72.1782 95.6992 72.3785 95.557 72.6358C95.132 73.3374 94.3373 74.4245 93.262 74.2426L93.1005 77.192Z" fill="#F4A28C"/>
<path id="Vector_23" d="M113.688 49.5124C113.688 49.5124 111.805 47.1087 109.722 49.5124C107.64 51.9161 111.949 55.4069 113.688 49.5124Z" fill="#F4A28C"/>
<path id="Vector_24" opacity="0.08" d="M69.9252 69.8726C68.4579 69.7694 66.9853 69.7694 65.518 69.8726C66.9066 69.1544 68.3917 68.6494 69.9252 68.374V69.8726Z" fill="black"/>
<path id="Vector_25" d="M55.9926 16.3366L57.908 17.561L59.1095 15.6092L57.1941 14.3848L55.9926 16.3366Z" fill="#C9C9C9"/>
<path id="Vector_26" d="M98.5592 17.561L100.233 19.2668L101.907 17.561L100.233 15.8552L98.5592 17.561Z" fill="#E6E6E6"/>
<path id="Vector_27" d="M34.1276 43.744L34.9855 47.5737L38.7436 46.6994L37.8857 42.8697L34.1276 43.744Z" fill="#E6E6E6"/>
<path id="Vector_28" d="M127.305 37.4375V41.3657H131.159V37.4375H127.305Z" fill="#C9C9C9"/>
</g>
</svg>
